<?xml version="1.0" standalone="no"?>
<!DOCTYPE svg PUBLIC "-//W3C//DTD SVG 20010904//EN"
 "http://www.w3.org/TR/2001/REC-SVG-20010904/DTD/svg10.dtd">
<svg version="1.0" xmlns="http://www.w3.org/2000/svg"
 width="700.000000pt" height="700.000000pt" viewBox="0 0 700.000000 700.000000"
 preserveAspectRatio="xMidYMid meet">
<metadata>
Created by potrace 1.14, written by Peter Selinger 2001-2017
</metadata>
<g transform="translate(0.000000,700.000000) scale(0.100000,-0.100000)"
fill="#000000" stroke="none">
<path d="M3269 6966 c-2 -2 -38 -7 -79 -10 -139 -10 -362 -46 -484 -77 -45
-11 -90 -22 -100 -24 -154 -33 -553 -187 -708 -273 -18 -10 -64 -36 -103 -57
-112 -62 -341 -216 -452 -304 -114 -90 -176 -146 -303 -271 -373 -369 -658
-828 -834 -1341 -37 -110 -110 -384 -120 -454 -3 -22 -7 -49 -10 -60 -7 -38
-25 -155 -31 -211 -23 -204 -23 -620 -1 -764 2 -14 7 -47 10 -75 3 -27 8 -61
11 -75 2 -14 11 -66 19 -115 38 -218 138 -547 228 -745 78 -170 146 -300 226
-430 56 -91 167 -256 182 -270 3 -3 21 -25 40 -50 19 -25 76 -92 126 -150 610
-696 1457 -1116 2379 -1177 185 -12 470 -6 616 12 19 3 59 7 89 11 30 3 57 7
60 9 3 2 30 6 60 10 30 4 58 9 61 11 4 2 24 6 45 9 60 9 289 70 394 105 978
328 1751 1057 2135 2015 97 242 189 588 211 800 2 21 7 51 9 65 27 141 27 701
0 839 -2 10 -6 42 -10 72 -4 30 -17 111 -31 180 -103 537 -350 1067 -700 1504
-114 142 -388 416 -529 528 -455 364 -1014 619 -1552 711 -88 15 -173 28 -222
32 -31 3 -67 8 -81 11 -29 6 -545 14 -551 9z m571 -71 c354 -47 603 -109 883
-219 100 -39 334 -149 412 -194 101 -58 141 -83 241 -148 226 -150 512 -402
684 -603 30 -35 65 -76 78 -90 52 -60 212 -289 275 -393 121 -201 233 -445
307 -669 29 -89 87 -305 96 -359 3 -14 11 -61 18 -105 21 -118 33 -236 40
-375 4 -101 -6 -71 -18 50 -5 54 -22 157 -53 319 -2 14 -6 28 -8 31 -2 4 -7
20 -10 37 -8 46 -79 276 -113 368 -199 531 -560 1042 -1002 1416 -41 35 -77
66 -80 69 -11 12 -229 169 -295 212 -140 92 -309 182 -506 271 -83 37 -288
111 -409 146 -110 31 -369 86 -455 96 -27 3 -66 7 -85 10 -169 22 -567 22
-688 1 -9 -2 -44 -7 -77 -10 -152 -18 -404 -73 -570 -126 -295 -94 -556 -220
-820 -396 -288 -191 -523 -406 -760 -695 -166 -202 -357 -530 -468 -804 -206
-506 -285 -1096 -217 -1610 6 -44 13 -98 16 -120 10 -77 63 -304 99 -427 83
-280 237 -627 393 -884 43 -71 118 -194 166 -272 120 -200 235 -350 366 -483
81 -82 76 -85 -15 -7 -254 216 -512 525 -699 839 -234 391 -402 879 -450 1309
-3 25 -8 70 -13 100 -10 72 -10 543 0 645 59 597 279 1184 621 1660 247 343
598 676 941 892 74 47 293 173 300 173 1 0 46 20 98 45 260 122 549 212 866
270 14 2 51 8 81 11 30 4 100 12 155 19 101 12 584 12 675 0z m-424 -312 c-4
-26 -11 -73 -16 -103 -5 -30 -12 -75 -15 -100 -3 -25 -8 -52 -10 -60 -2 -8 -7
-40 -10 -70 -4 -30 -13 -91 -20 -135 -8 -44 -19 -116 -25 -161 -6 -44 -12 -89
-14 -100 -2 -10 -9 -53 -15 -94 -7 -41 -18 -115 -26 -165 -8 -49 -17 -110 -20
-135 -5 -36 -47 -308 -70 -450 -2 -14 -6 -45 -9 -70 -3 -25 -8 -54 -10 -65 -4
-23 -9 -56 -41 -265 -9 -58 -21 -134 -26 -170 -5 -36 -12 -76 -14 -90 -9 -53
-45 -288 -55 -360 -5 -41 -13 -87 -16 -102 -5 -24 1 -30 93 -82 53 -30 98 -54
99 -53 1 1 5 31 8 67 4 36 9 88 12 115 9 85 12 117 19 195 4 41 8 91 10 110 3
30 7 68 20 200 2 14 6 61 10 105 3 44 8 91 10 105 2 14 6 54 10 90 3 36 8 85
10 110 3 25 7 75 10 112 3 37 7 75 9 85 2 10 7 56 11 103 4 47 9 96 10 110 12
123 20 205 30 315 4 44 8 87 10 95 1 8 6 53 10 100 4 47 8 99 10 115 2 17 7
62 11 100 3 39 7 81 9 95 1 14 6 61 10 105 3 44 8 91 10 105 3 25 11 102 20
210 9 94 17 131 27 128 10 -4 12 -114 23 -1218 14 -1560 17 -1805 19 -1808 2
-1 110 61 240 140 l238 142 -6 40 c-8 55 -12 79 -51 301 -19 105 -45 255 -59
335 -14 80 -37 210 -51 290 -35 194 -33 183 -50 280 -8 47 -17 103 -20 125 -4
22 -8 47 -10 55 -2 8 -7 30 -10 48 -3 17 -7 47 -10 65 -3 17 -8 39 -10 47 -2
8 -6 31 -9 50 -3 19 -14 87 -26 150 -11 63 -31 180 -45 260 -14 80 -27 156
-30 170 -3 14 -8 40 -11 59 -3 18 -8 43 -10 55 -2 11 -13 75 -24 141 -11 66
-26 153 -34 193 -7 40 -11 74 -7 76 7 5 56 2 221 -9 101 -8 119 -10 275 -36
1200 -200 2190 -1116 2494 -2304 25 -98 58 -267 66 -332 3 -26 8 -64 10 -83
24 -165 23 -537 0 -725 -14 -115 -17 -131 -41 -250 -38 -193 -121 -459 -190
-613 -33 -73 -123 -257 -133 -271 -7 -12 -17 -8 -53 20 -23 18 -45 36 -48 39
-3 3 -115 97 -250 210 -135 112 -261 217 -281 234 -19 17 -57 49 -84 71 -27
22 -206 172 -399 334 -193 161 -481 402 -640 535 -158 132 -293 246 -300 251
-116 101 -119 103 -151 86 -101 -55 -165 -94 -170 -101 -3 -4 10 -17 28 -28
17 -11 123 -87 234 -169 414 -304 1367 -1002 1815 -1328 246 -179 298 -225
256 -225 -6 0 -137 73 -292 162 -154 89 -364 210 -466 268 -102 59 -246 142
-320 185 -74 43 -178 103 -230 133 -52 30 -110 63 -127 73 -18 11 -48 27 -65
38 -18 10 -284 163 -591 340 -307 176 -561 321 -563 321 -2 0 -3 -120 -2 -267
l3 -267 435 -168 c239 -93 577 -223 750 -290 173 -67 376 -145 450 -174 74
-29 324 -125 555 -214 231 -89 425 -165 432 -169 16 -8 -116 -206 -242 -361
-528 -651 -1297 -1066 -2130 -1147 -103 -10 -463 -10 -580 0 -871 73 -1707
543 -2230 1252 -72 97 -169 244 -164 249 2 2 54 22 114 46 61 23 169 64 240
92 141 54 268 104 300 118 11 4 58 22 105 40 47 18 94 36 105 41 39 17 926
359 932 359 3 0 19 7 36 15 18 8 154 61 302 119 149 57 320 123 380 146 61 24
112 46 115 51 4 6 5 458 1 521 -1 12 -33 -3 -138 -64 -76 -45 -158 -92 -183
-106 -25 -14 -119 -68 -210 -120 -169 -97 -947 -543 -1010 -580 -19 -11 -186
-106 -370 -212 -184 -106 -353 -203 -375 -215 -22 -13 -112 -64 -199 -114
-141 -82 -195 -102 -184 -71 2 5 33 31 70 57 71 51 286 209 558 409 145 106
986 721 1520 1112 102 75 188 138 192 142 4 3 -39 32 -97 64 l-105 58 -212
-177 c-117 -97 -224 -187 -238 -199 -14 -12 -119 -100 -235 -196 -115 -96
-221 -185 -235 -196 -14 -12 -108 -91 -210 -175 -102 -84 -187 -156 -190 -159
-3 -3 -43 -37 -90 -75 -47 -38 -87 -72 -90 -75 -3 -3 -57 -48 -120 -100 -63
-52 -126 -104 -140 -116 -23 -20 -155 -131 -205 -172 -70 -58 -143 -120 -165
-139 -14 -13 -27 -23 -31 -23 -8 0 -130 256 -170 355 -78 198 -161 501 -183
675 -3 25 -8 55 -10 67 -27 138 -28 676 -1 813 3 14 7 46 10 71 5 45 10 71 20
119 3 14 7 34 9 45 31 152 93 355 156 515 332 837 1025 1500 1873 1796 171 59
422 123 542 138 22 2 65 8 95 11 140 17 169 20 243 23 l79 3 -6 -48z m2767
-1293 c224 -277 415 -703 520 -1165 22 -97 31 -147 52 -285 26 -174 26 -589 1
-740 -3 -14 -7 -47 -11 -73 -3 -26 -10 -71 -16 -100 -5 -29 -12 -68 -15 -87
-10 -60 -72 -296 -100 -377 -102 -298 -217 -533 -390 -793 -76 -114 -115 -167
-229 -306 -61 -74 -290 -300 -385 -380 -363 -305 -811 -537 -1270 -658 -107
-28 -327 -72 -410 -81 -30 -4 -68 -8 -85 -10 -186 -22 -558 -22 -705 0 -14 2
-50 7 -80 10 -30 4 -64 8 -75 10 -87 12 -121 18 -126 21 -3 2 -21 6 -40 9
-113 19 -406 102 -494 139 -16 7 -46 19 -65 26 -207 77 -482 230 -687 381
-152 113 -360 310 -468 444 -22 27 -48 58 -57 69 -32 36 -174 241 -230 331
-136 222 -260 492 -343 750 -34 106 -88 316 -82 322 3 2 12 -27 21 -65 34
-149 135 -420 222 -593 383 -766 1054 -1352 1849 -1614 119 -40 251 -77 315
-89 14 -2 59 -11 100 -20 41 -8 100 -18 130 -21 30 -4 57 -8 60 -10 17 -10
221 -20 410 -20 232 1 352 9 500 35 30 5 72 12 93 16 66 10 268 61 372 94 401
128 792 344 1095 607 14 12 36 31 50 43 102 87 273 267 371 390 240 299 418
625 542 990 23 68 73 244 82 288 28 141 45 238 50 287 4 33 9 69 11 80 16 83
22 406 10 575 -38 555 -243 1132 -570 1608 -39 57 -77 113 -85 125 -27 41 101
-88 162 -163z m694 -1672 c-3 -8 -6 -5 -6 6 -1 11 2 17 5 13 3 -3 4 -12 1 -19z
m-6490 -840 c-3 -8 -6 -5 -6 6 -1 11 2 17 5 13 3 -3 4 -12 1 -19z"/>
<path d="M3468 6063 c0 -21 -2 -49 -3 -63 -2 -14 -6 -72 -9 -130 -4 -58 -9
-130 -11 -160 -4 -56 -11 -169 -20 -320 -3 -47 -8 -116 -10 -155 -3 -38 -7
-108 -10 -155 -3 -47 -7 -112 -9 -145 -3 -33 -7 -107 -11 -165 -3 -58 -8 -130
-10 -160 -4 -54 -12 -173 -20 -315 -5 -78 -15 -236 -20 -305 -2 -25 -6 -99
-10 -165 -4 -66 -9 -122 -10 -125 -8 -13 15 -33 76 -70 35 -21 65 -37 66 -36
1 1 5 409 8 906 3 498 8 1061 10 1253 2 191 1 347 -1 347 -2 0 -5 -17 -6 -37z"/>
<path d="M3648 3567 c-37 -23 -67 -45 -68 -48 0 -7 1166 -699 1214 -721 14 -6
26 -15 26 -20 0 -4 4 -8 9 -8 6 0 142 -78 303 -173 435 -258 468 -277 468
-273 0 3 -127 91 -282 197 -156 106 -312 213 -348 237 -36 25 -312 214 -613
421 -302 207 -556 381 -565 386 -9 6 -28 18 -41 28 -13 9 -26 17 -30 16 -3 -1
-36 -20 -73 -42z"/>
<path d="M3268 3587 c-7 -7 -129 -109 -272 -227 -264 -220 -351 -295 -306
-267 14 9 48 29 75 45 86 49 582 342 624 369 l23 15 -35 24 c-20 13 -40 24
-45 24 -5 0 -15 7 -22 15 -15 18 -25 19 -42 2z"/>
</g>
</svg>
